<svg xmlns="http://www.w3.org/2000/svg" xmlns:xlink="http://www.w3.org/1999/xlink" width="500" zoomAndPan="magnify" viewBox="0 0 375 89.999999" height="120" preserveAspectRatio="xMidYMid meet" version="1.0"><defs><g/><clipPath id="1f0b48bf75"><path d="M 4.375 9 L 73.375 9 L 73.375 86.25 L 4.375 86.25 Z M 4.375 9 " clip-rule="nonzero"/></clipPath></defs><g clip-path="url(#1f0b48bf75)"><path fill="#ffffff" d="M 73.152344 52.109375 L 73.152344 19.359375 C 73.152344 18.578125 72.765625 17.84375 72.121094 17.390625 C 61.070312 9.667969 50.003906 8.96875 38.886719 8.980469 C 27.835938 8.996094 16.777344 9.695312 5.664062 17.386719 C 5.015625 17.835938 4.628906 18.574219 4.628906 19.359375 C 4.628906 19.359375 4.628906 35.828125 4.628906 52.109375 C 4.628906 70.945312 19.96875 86.210938 38.890625 86.210938 L 38.890625 83.804688 C 38.890625 86.210938 38.890625 86.210938 38.890625 86.210938 C 57.8125 86.210938 73.152344 70.945312 73.152344 52.109375 Z M 68.316406 20.636719 C 58.539062 14.234375 48.71875 13.78125 38.890625 13.792969 C 29.117188 13.804688 19.296875 14.257812 9.464844 20.640625 L 9.464844 52.109375 C 9.464844 68.285156 22.636719 81.398438 38.890625 81.398438 C 38.890625 81.398438 38.890625 83.804688 38.890625 83.804688 L 38.890625 81.398438 C 55.140625 81.398438 68.316406 68.285156 68.316406 52.109375 Z M 68.316406 20.636719 " fill-opacity="1" fill-rule="evenodd"/></g><path fill="#ffffff" d="M 54.042969 45.828125 C 54.042969 44.496094 52.960938 43.421875 51.628906 43.421875 L 26.152344 43.421875 C 24.816406 43.421875 23.734375 44.496094 23.734375 45.828125 L 23.734375 63.53125 C 23.734375 64.859375 24.816406 65.9375 26.152344 65.9375 L 51.628906 65.9375 C 52.960938 65.9375 54.042969 64.859375 54.042969 63.53125 Z M 54.042969 45.828125 " fill-opacity="1" fill-rule="evenodd"/><path fill="#ffffff" d="M 50.859375 41.171875 C 50.859375 38.011719 49.597656 34.980469 47.355469 32.746094 C 45.109375 30.511719 42.0625 29.253906 38.890625 29.253906 L 38.890625 31.660156 C 38.890625 29.253906 38.890625 29.253906 38.890625 29.253906 C 35.714844 29.253906 32.667969 30.511719 30.425781 32.746094 C 28.179688 34.980469 26.917969 38.011719 26.917969 41.171875 C 26.917969 43.742188 26.917969 45.828125 26.917969 45.828125 C 26.917969 47.15625 28 48.234375 29.335938 48.234375 L 48.441406 48.234375 C 49.777344 48.234375 50.859375 47.15625 50.859375 45.828125 Z M 46.023438 43.421875 L 46.023438 41.171875 C 46.023438 39.285156 45.273438 37.480469 43.933594 36.148438 C 42.597656 34.816406 40.78125 34.066406 38.890625 34.066406 L 38.890625 31.660156 L 38.890625 34.066406 C 36.996094 34.066406 35.183594 34.816406 33.84375 36.148438 C 32.503906 37.480469 31.753906 39.285156 31.753906 41.171875 L 31.753906 43.421875 Z M 46.023438 43.421875 " fill-opacity="1" fill-rule="evenodd"/><g fill="#ffffff" fill-opacity="1"><g transform="translate(83.080428, 49.832695)"><g><path d="M 18.8125 -36.4375 C 21.425781 -36.4375 23.660156 -35.957031 25.515625 -35 C 27.367188 -34.050781 28.765625 -32.71875 29.703125 -31 C 30.648438 -29.28125 31.125 -27.28125 31.125 -25 C 31.125 -22.71875 30.648438 -20.722656 29.703125 -19.015625 C 28.765625 -17.304688 27.367188 -15.972656 25.515625 -15.015625 C 23.660156 -14.054688 21.425781 -13.578125 18.8125 -13.578125 L 11.9375 -13.578125 L 11.9375 0 L 4.734375 0 L 4.734375 -36.4375 Z M 17.875 -19.296875 C 21.875 -19.296875 23.875 -21.195312 23.875 -25 C 23.875 -28.820312 21.875 -30.734375 17.875 -30.734375 L 11.9375 -30.734375 L 11.9375 -19.296875 Z M 17.875 -19.296875 "/></g></g></g><g fill="#ffffff" fill-opacity="1"><g transform="translate(116.380536, 49.832695)"><g><path d="M 34.96875 0 L 27.390625 0 L 24.65625 -8.40625 L 10.6875 -8.40625 L 7.953125 0 L 0.546875 0 L 13.140625 -36.4375 L 22.390625 -36.4375 Z M 17.328125 -28.84375 L 12.640625 -14.453125 L 22.65625 -14.453125 L 17.953125 -28.84375 Z M 17.328125 -28.84375 "/></g></g></g><g fill="#ffffff" fill-opacity="1"><g transform="translate(151.89899, 49.832695)"><g><path d="M 16.15625 0.515625 C 13.625 0.515625 11.375 0.207031 9.40625 -0.40625 C 7.4375 -1.03125 5.796875 -1.847656 4.484375 -2.859375 C 3.171875 -3.878906 2.164062 -4.992188 1.46875 -6.203125 L 5.4375 -11.046875 L 6.0625 -11.046875 C 7.15625 -9.410156 8.546875 -8.109375 10.234375 -7.140625 C 11.921875 -6.179688 13.894531 -5.703125 16.15625 -5.703125 C 18.082031 -5.703125 19.535156 -6.109375 20.515625 -6.921875 C 21.492188 -7.742188 21.984375 -8.867188 21.984375 -10.296875 C 21.984375 -11.160156 21.820312 -11.878906 21.5 -12.453125 C 21.1875 -13.035156 20.664062 -13.535156 19.9375 -13.953125 C 19.207031 -14.367188 18.21875 -14.726562 16.96875 -15.03125 L 12.28125 -16.109375 C 9.007812 -16.847656 6.570312 -18.085938 4.96875 -19.828125 C 3.363281 -21.566406 2.5625 -23.820312 2.5625 -26.59375 C 2.5625 -28.65625 3.078125 -30.46875 4.109375 -32.03125 C 5.140625 -33.59375 6.640625 -34.804688 8.609375 -35.671875 C 10.578125 -36.535156 12.929688 -36.96875 15.671875 -36.96875 C 18.484375 -36.96875 20.890625 -36.597656 22.890625 -35.859375 C 24.890625 -35.117188 26.582031 -33.984375 27.96875 -32.453125 L 24.40625 -27.5625 L 23.78125 -27.5625 C 22.75 -28.644531 21.566406 -29.457031 20.234375 -30 C 18.910156 -30.539062 17.390625 -30.8125 15.671875 -30.8125 C 13.703125 -30.8125 12.203125 -30.460938 11.171875 -29.765625 C 10.140625 -29.066406 9.625 -28.101562 9.625 -26.875 C 9.625 -25.726562 9.984375 -24.8125 10.703125 -24.125 C 11.429688 -23.445312 12.679688 -22.914062 14.453125 -22.53125 L 19.25 -21.53125 C 22.78125 -20.78125 25.34375 -19.515625 26.9375 -17.734375 C 28.539062 -15.953125 29.34375 -13.625 29.34375 -10.75 C 29.34375 -8.46875 28.847656 -6.484375 27.859375 -4.796875 C 26.878906 -3.109375 25.398438 -1.800781 23.421875 -0.875 C 21.453125 0.0507812 19.03125 0.515625 16.15625 0.515625 Z M 16.15625 0.515625 "/></g></g></g><g fill="#ffffff" fill-opacity="1"><g transform="translate(183.205079, 49.832695)"><g><path d="M 16.15625 0.515625 C 13.625 0.515625 11.375 0.207031 9.40625 -0.40625 C 7.4375 -1.03125 5.796875 -1.847656 4.484375 -2.859375 C 3.171875 -3.878906 2.164062 -4.992188 1.46875 -6.203125 L 5.4375 -11.046875 L 6.0625 -11.046875 C 7.15625 -9.410156 8.546875 -8.109375 10.234375 -7.140625 C 11.921875 -6.179688 13.894531 -5.703125 16.15625 -5.703125 C 18.082031 -5.703125 19.535156 -6.109375 20.515625 -6.921875 C 21.492188 -7.742188 21.984375 -8.867188 21.984375 -10.296875 C 21.984375 -11.160156 21.820312 -11.878906 21.5 -12.453125 C 21.1875 -13.035156 20.664062 -13.535156 19.9375 -13.953125 C 19.207031 -14.367188 18.21875 -14.726562 16.96875 -15.03125 L 12.28125 -16.109375 C 9.007812 -16.847656 6.570312 -18.085938 4.96875 -19.828125 C 3.363281 -21.566406 2.5625 -23.820312 2.5625 -26.59375 C 2.5625 -28.65625 3.078125 -30.46875 4.109375 -32.03125 C 5.140625 -33.59375 6.640625 -34.804688 8.609375 -35.671875 C 10.578125 -36.535156 12.929688 -36.96875 15.671875 -36.96875 C 18.484375 -36.96875 20.890625 -36.597656 22.890625 -35.859375 C 24.890625 -35.117188 26.582031 -33.984375 27.96875 -32.453125 L 24.40625 -27.5625 L 23.78125 -27.5625 C 22.75 -28.644531 21.566406 -29.457031 20.234375 -30 C 18.910156 -30.539062 17.390625 -30.8125 15.671875 -30.8125 C 13.703125 -30.8125 12.203125 -30.460938 11.171875 -29.765625 C 10.140625 -29.066406 9.625 -28.101562 9.625 -26.875 C 9.625 -25.726562 9.984375 -24.8125 10.703125 -24.125 C 11.429688 -23.445312 12.679688 -22.914062 14.453125 -22.53125 L 19.25 -21.53125 C 22.78125 -20.78125 25.34375 -19.515625 26.9375 -17.734375 C 28.539062 -15.953125 29.34375 -13.625 29.34375 -10.75 C 29.34375 -8.46875 28.847656 -6.484375 27.859375 -4.796875 C 26.878906 -3.109375 25.398438 -1.800781 23.421875 -0.875 C 21.453125 0.0507812 19.03125 0.515625 16.15625 0.515625 Z M 16.15625 0.515625 "/></g></g></g><g fill="#ffffff" fill-opacity="1"><g transform="translate(214.511169, 49.832695)"><g><path d="M 17.390625 0 L 9.34375 0 L 1 -36.4375 L 8.171875 -36.4375 L 13.6875 -10.8125 L 14.3125 -10.8125 L 20.84375 -36.4375 L 27 -36.4375 L 33.65625 -10.8125 L 34.265625 -10.8125 L 39.8125 -36.4375 L 46.734375 -36.4375 L 38.40625 0 L 30.328125 0 L 23.953125 -23.5 L 23.4375 -23.5 Z M 17.390625 0 "/></g></g></g><g fill="#ffffff" fill-opacity="1"><g transform="translate(262.21806, 49.832695)"><g><path d="M 19.859375 0.515625 C 16.523438 0.515625 13.582031 -0.160156 11.03125 -1.515625 C 8.476562 -2.878906 6.476562 -4.960938 5.03125 -7.765625 C 3.582031 -10.566406 2.859375 -14.050781 2.859375 -18.21875 C 2.859375 -22.394531 3.582031 -25.878906 5.03125 -28.671875 C 6.476562 -31.472656 8.476562 -33.554688 11.03125 -34.921875 C 13.582031 -36.285156 16.523438 -36.96875 19.859375 -36.96875 C 23.203125 -36.96875 26.144531 -36.289062 28.6875 -34.9375 C 31.226562 -33.582031 33.21875 -31.5 34.65625 -28.6875 C 36.09375 -25.882812 36.8125 -22.394531 36.8125 -18.21875 C 36.8125 -14.050781 36.09375 -10.5625 34.65625 -7.75 C 33.21875 -4.945312 31.226562 -2.867188 28.6875 -1.515625 C 26.144531 -0.160156 23.203125 0.515625 19.859375 0.515625 Z M 19.859375 -5.734375 C 22.953125 -5.734375 25.3125 -6.722656 26.9375 -8.703125 C 28.570312 -10.691406 29.390625 -13.863281 29.390625 -18.21875 C 29.390625 -22.570312 28.570312 -25.742188 26.9375 -27.734375 C 25.3125 -29.734375 22.953125 -30.734375 19.859375 -30.734375 C 16.753906 -30.734375 14.382812 -29.734375 12.75 -27.734375 C 11.113281 -25.742188 10.296875 -22.570312 10.296875 -18.21875 C 10.296875 -13.863281 11.113281 -10.691406 12.75 -8.703125 C 14.382812 -6.722656 16.753906 -5.734375 19.859375 -5.734375 Z M 19.859375 -5.734375 "/></g></g></g><g fill="#ffffff" fill-opacity="1"><g transform="translate(301.923953, 49.832695)"><g><path d="M 4.734375 0 L 4.734375 -36.4375 L 19.359375 -36.4375 C 23.140625 -36.4375 25.988281 -35.566406 27.90625 -33.828125 C 29.820312 -32.097656 30.78125 -29.703125 30.78125 -26.640625 C 30.78125 -24.429688 30.21875 -22.617188 29.09375 -21.203125 C 27.976562 -19.796875 26.304688 -18.71875 24.078125 -17.96875 L 24.078125 -17.453125 C 25.222656 -16.953125 26.148438 -16.210938 26.859375 -15.234375 C 27.566406 -14.253906 28.234375 -12.800781 28.859375 -10.875 L 32.5 0 L 25.09375 0 L 21.53125 -10.890625 C 21.164062 -11.984375 20.753906 -12.832031 20.296875 -13.4375 C 19.835938 -14.050781 19.253906 -14.492188 18.546875 -14.765625 C 17.847656 -15.035156 16.929688 -15.171875 15.796875 -15.171875 L 11.9375 -15.171875 L 11.9375 0 Z M 18.5 -20.890625 C 21.988281 -20.890625 23.734375 -22.515625 23.734375 -25.765625 C 23.734375 -29.078125 21.988281 -30.734375 18.5 -30.734375 L 11.9375 -30.734375 L 11.9375 -20.890625 Z M 18.5 -20.890625 "/></g></g></g><g fill="#ffffff" fill-opacity="1"><g transform="translate(335.996743, 49.832695)"><g><path d="M 17.84375 -36.4375 C 23.757812 -36.4375 28.273438 -34.90625 31.390625 -31.84375 C 34.503906 -28.789062 36.0625 -24.25 36.0625 -18.21875 C 36.0625 -12.207031 34.503906 -7.664062 31.390625 -4.59375 C 28.273438 -1.53125 23.757812 0 17.84375 0 L 4.734375 0 L 4.734375 -36.4375 Z M 17.421875 -6.0625 C 21.179688 -6.0625 23.988281 -7.019531 25.84375 -8.9375 C 27.707031 -10.851562 28.640625 -13.945312 28.640625 -18.21875 C 28.640625 -22.488281 27.707031 -25.582031 25.84375 -27.5 C 23.988281 -29.425781 21.179688 -30.390625 17.421875 -30.390625 L 11.9375 -30.390625 L 11.9375 -6.0625 Z M 17.421875 -6.0625 "/></g></g></g><g fill="#ffffff" fill-opacity="1"><g transform="translate(83.080428, 86.034543)"><g><path d="M 8.96875 0 L 3.75 0 L 3.75 -28.796875 L 11.1875 -28.796875 L 18.484375 -7.625 L 18.890625 -7.625 L 26.140625 -28.796875 L 33.40625 -28.796875 L 33.40625 0 L 28.015625 0 L 28.015625 -19.03125 L 27.515625 -19.109375 L 20.859375 0 L 16.109375 0 L 9.453125 -19.109375 L 8.96875 -19.03125 Z M 8.96875 0 "/></g></g></g><g fill="#ffffff" fill-opacity="1"><g transform="translate(134.045255, 86.034543)"><g><path d="M 27.640625 0 L 21.65625 0 L 19.484375 -6.640625 L 8.453125 -6.640625 L 6.28125 0 L 0.4375 0 L 10.375 -28.796875 L 17.6875 -28.796875 Z M 13.6875 -22.796875 L 9.984375 -11.421875 L 17.90625 -11.421875 L 14.1875 -22.796875 Z M 13.6875 -22.796875 "/></g></g></g><g fill="#ffffff" fill-opacity="1"><g transform="translate(175.910718, 86.034543)"><g><path d="M 9.265625 0 L 3.75 0 L 3.75 -28.796875 L 10.265625 -28.796875 L 21.828125 -10.25 L 22.34375 -10.328125 L 22.34375 -28.796875 L 27.8125 -28.796875 L 27.8125 0 L 21.984375 0 L 9.75 -19.8125 L 9.265625 -19.734375 Z M 9.265625 0 "/></g></g></g><g fill="#ffffff" fill-opacity="1"><g transform="translate(221.281991, 86.034543)"><g><path d="M 27.640625 0 L 21.65625 0 L 19.484375 -6.640625 L 8.453125 -6.640625 L 6.28125 0 L 0.4375 0 L 10.375 -28.796875 L 17.6875 -28.796875 Z M 13.6875 -22.796875 L 9.984375 -11.421875 L 17.90625 -11.421875 L 14.1875 -22.796875 Z M 13.6875 -22.796875 "/></g></g></g><g fill="#ffffff" fill-opacity="1"><g transform="translate(263.14746, 86.034543)"><g><path d="M 13.984375 0.40625 C 11.578125 0.40625 9.5 -0.140625 7.75 -1.234375 C 6 -2.328125 4.644531 -3.976562 3.6875 -6.1875 C 2.738281 -8.40625 2.265625 -11.144531 2.265625 -14.40625 C 2.265625 -17.6875 2.832031 -20.429688 3.96875 -22.640625 C 5.113281 -24.859375 6.703125 -26.507812 8.734375 -27.59375 C 10.765625 -28.675781 13.117188 -29.21875 15.796875 -29.21875 C 18.554688 -29.21875 20.90625 -28.703125 22.84375 -27.671875 C 24.789062 -26.648438 26.160156 -25.128906 26.953125 -23.109375 L 22.796875 -20.578125 L 22.296875 -20.609375 C 21.703125 -21.890625 20.867188 -22.828125 19.796875 -23.421875 C 18.734375 -24.015625 17.398438 -24.3125 15.796875 -24.3125 C 13.316406 -24.3125 11.421875 -23.523438 10.109375 -21.953125 C 8.796875 -20.378906 8.140625 -17.863281 8.140625 -14.40625 C 8.140625 -10.925781 8.75 -8.394531 9.96875 -6.8125 C 11.195312 -5.238281 13.015625 -4.453125 15.421875 -4.453125 C 17.492188 -4.453125 19.019531 -4.914062 20 -5.84375 C 20.988281 -6.78125 21.484375 -8.175781 21.484375 -10.03125 L 21.484375 -11.265625 L 14.671875 -11.265625 L 14.671875 -15.890625 L 27.140625 -15.890625 L 27.140625 0 L 21.703125 0 L 21.703125 -3.859375 L 21.296875 -3.921875 C 20.703125 -2.546875 19.800781 -1.476562 18.59375 -0.71875 C 17.394531 0.03125 15.859375 0.40625 13.984375 0.40625 Z M 13.984375 0.40625 "/></g></g></g><g fill="#ffffff" fill-opacity="1"><g transform="translate(306.982489, 86.034543)"><g><path d="M 9.4375 -12.640625 L 9.4375 -4.765625 L 23.1875 -4.765625 L 23.1875 0 L 3.75 0 L 3.75 -28.796875 L 22.875 -28.796875 L 22.875 -24.03125 L 9.4375 -24.03125 L 9.4375 -17.296875 L 21.171875 -17.296875 L 21.171875 -12.640625 Z M 9.4375 -12.640625 "/></g></g></g><g fill="#ffffff" fill-opacity="1"><g transform="translate(345.539098, 86.034543)"><g><path d="M 3.75 0 L 3.75 -28.796875 L 15.3125 -28.796875 C 18.289062 -28.796875 20.535156 -28.109375 22.046875 -26.734375 C 23.566406 -25.367188 24.328125 -23.476562 24.328125 -21.0625 C 24.328125 -19.3125 23.882812 -17.878906 23 -16.765625 C 22.113281 -15.648438 20.789062 -14.796875 19.03125 -14.203125 L 19.03125 -13.796875 C 19.9375 -13.398438 20.664062 -12.8125 21.21875 -12.03125 C 21.78125 -11.257812 22.3125 -10.113281 22.8125 -8.59375 L 25.6875 0 L 19.84375 0 L 17.015625 -8.609375 C 16.734375 -9.472656 16.410156 -10.144531 16.046875 -10.625 C 15.679688 -11.101562 15.21875 -11.453125 14.65625 -11.671875 C 14.101562 -11.890625 13.378906 -12 12.484375 -12 L 9.4375 -12 L 9.4375 0 Z M 14.609375 -16.515625 C 17.367188 -16.515625 18.75 -17.800781 18.75 -20.375 C 18.75 -22.976562 17.367188 -24.28125 14.609375 -24.28125 L 9.4375 -24.28125 L 9.4375 -16.515625 Z M 14.609375 -16.515625 "/></g></g></g></svg>