<svg xmlns="http://www.w3.org/2000/svg" height="48" viewBox="0 -960 960 960" width="48"><path d="m646-273 35-33q11-10.182 11-23.591T681-353L538-497q2-11 5.5-22.889T547-547q0-60-42.5-102t-101.853-42Q391-691 380-688.5q-11 2.5-23.105 7.5Q348-676 343-667.519q-5 8.482 3 15.519l66 64-48 44-61-62q-8-6-16-3.5t-12 8.5q-6 14-8.5 27t-2.5 26.647Q264-490 303.5-449.5 343-409 403-409q12 0 26.162-1 14.162-1 25.838-6l142 143q10.455 11 24.227 11Q635-262 646-273ZM480-59q-87 0-163.987-32.584-76.988-32.583-134.417-90.012T91.584-316.013Q59-393 59-480t32.584-163.987q32.583-76.988 90.012-134.417t134.417-90.512Q393-902 480-902t163.987 33.084q76.988 33.083 134.417 90.512t90.512 134.417Q902-567 902-480t-33.084 163.987q-33.083 76.988-90.512 134.417T643.987-91.584Q567-59 480-59Z"/></svg>