<svg xmlns="http://www.w3.org/2000/svg" height="48" viewBox="0 -960 960 960" width="48"><path d="M230-59q-37.175 0-64.087-26.912Q139-112.825 139-150v-489q0-37.588 26.913-64.794Q192.825-731 230-731h85v-10q2-67 50.031-114t115.181-47q67.15 0 115.469 47Q644-808 646-741v10h84q37.588 0 64.794 27.206Q822-676.588 822-639v489q0 37.175-27.206 64.088Q767.588-59 730-59H230Zm177-672h147v-10q-2-28-23-48.5T480-810q-30 0-50.5 20.5T407-741v10Zm193 212q18.6 0 32.3-13.2Q646-545.4 646-565v-74h-91v74q0 19.6 13.2 32.8Q581.4-519 600-519Zm-240 0q18.6 0 32.3-13.2Q406-545.4 406-565v-74h-91v74q0 19.6 13.2 32.8Q341.4-519 360-519Z"/></svg>