<svg xmlns="http://www.w3.org/2000/svg" viewBox="-655.984 -704 287 512"><path d="M -603.184 -694.32 l 6.4 -1.28 c 56.304 -11.2 113.264 -11.2 169.568 -0 l 6.72 1.28 c 30.4 6.08 52.48 32.96 52.48 63.984 v 234.848 c 0 39.04 -10.56 77.424 -30.08 111.024 l -35.2 60.144 c -11.52 19.84 -33.28 32.32 -56.624 32.32 h -44.16 c -23.36 0 -45.12 -12.48 -56.624 -32.64 l -36.16 -62.704 c -18.88 -33.28 -29.12 -71.024 -29.12 -109.424 v -233.568 c -0 -31.024 22.08 -57.904 52.8 -63.984 z M -629.744 -396.768 c 0 33.6 8.96 67.184 25.92 96.624 l 35.84 62.384 c 7.04 12.16 19.84 19.84 33.92 19.84 h 44.16 c 14.08 -0 27.2 -7.36 34.24 -19.52 l 34.88 -59.824 c 17.28 -29.76 26.56 -63.664 26.56 -98.224 v -234.848 c -0 -18.56 -13.12 -34.56 -31.36 -38.4 l -6.72 -1.28 c -26.56 -5.12 -53.104 -8 -79.664 -8 s -53.104 2.88 -79.664 8 l -6.72 1.28 c -18.24 3.84 -31.36 19.84 -31.36 38.4 v 233.568 z M -607.984 -599.616 v 99.184 c 0 3.52 2.88 6.4 6.4 6.4 h 179.168 c 3.52 -0 6.4 -2.88 6.4 -6.4 v -99.184 c -0 -3.52 -2.88 -6.4 -6.4 -6.4 h -179.168 c -3.52 0 -6.4 2.88 -6.4 6.4 z" fill="#000000"/></svg>
