<svg xmlns="http://www.w3.org/2000/svg" height="48" viewBox="0 -960 960 960" width="48"><path d="M391.825-99q-18.85 0-31.838-12.625Q347-124.25 347-145v-44h-82q-20.75 0-33.375-13.158t-12.625-32Q219-254 231.625-267T265-280h42v-401h-42q-20.75 0-33.375-12.658T219-726.07q0-18.755 12.625-32.842Q244.25-773 265-773h82v-43q0-19.65 13.158-32.825 13.158-13.175 32-13.175t32.342 13.175Q438-835.65 438-816v43h92v-43q0-19.65 13.36-32.825Q556.719-862 575.772-862q20.053 0 33.14 13.175Q622-835.65 622-816v51q58.133 16.293 90.567 61.646Q745-658 745-602.876q0 26.028-10 54.452T707-499q39 22 58.5 60.5T785-358q0 67.112-43.5 116.056T632-189h-10v44q0 20.75-13.263 33.375T575.421-99q-19.053 0-32.237-12.625Q530-124.25 530-145v-44h-92v44q0 20.75-13.45 33.375Q411.099-99 391.825-99ZM398-526h177.684Q608-526 631-548.494q23-22.493 23-54.506 0-31-22.969-54.5T575.684-681H398v155Zm0 246h217.567Q648-280 671-303.025T694-358q0-30-22.969-53.5T615.567-435H398v155Z"/></svg>