<svg xmlns="http://www.w3.org/2000/svg" height="48" viewBox="0 -960 960 960" width="48"><path d="M479.579-257Q505-257 519.5-270.579t14.5-39Q534-335 519.921-350t-39.5-15Q455-365 440.5-350.193T426-309.965q0 25.421 14.079 39.193Q454.158-257 479.579-257Zm3.281-175q20.14 0 32.64-12.625T528-478v-178q0-19.775-12.675-32.388Q502.649-701 482.509-701q-19.141 0-32.325 12.612Q437-675.775 437-656v178q0 20.75 13.36 33.375Q463.719-432 482.86-432Zm-2.915 373q-87.053 0-164.146-32.604-77.094-32.603-134.343-89.852-57.249-57.249-89.852-134.41Q59-393.028 59-480.362q0-87.228 32.662-163.934 32.663-76.706 90.042-134.279 57.378-57.574 134.252-90.499Q392.829-902 479.836-902q87.369 0 164.498 32.848 77.129 32.849 134.41 90.303 57.281 57.454 90.269 134.523Q902-567.257 902-479.724q0 87.468-32.926 164.044-32.925 76.575-90.499 133.781-57.573 57.205-134.447 90.052Q567.255-59 479.945-59Z"/></svg>