<svg xmlns="http://www.w3.org/2000/svg" height="48" viewBox="0 -960 960 960" width="48"><path d="M68-130q-20.1 0-33.05-12.45Q22-154.9 22-174.708V-246q0-42.011 21.188-75.36 21.187-33.348 59.856-50.662Q178-404 238.469-419 298.938-434 363-434q66.062 0 126.031 15Q549-404 624-372q38.812 16.018 60.406 49.452Q706-289.113 706-246v71.708Q706-155 693.275-142.5T660-130H68Zm679 0q11-5 20.5-17.5T777-177v-67q0-65-32.5-108T659-432q60 10 113 24.5t88.88 31.939q34.958 18.329 56.539 52.945Q939-288 939-241v66.787q0 19.505-13.225 31.859Q912.55-130 893-130H747ZM364-494q-71.55 0-115.275-43.725Q205-581.45 205-652.5q0-71.05 43.725-115.275Q292.45-812 363.5-812q70.05 0 115.275 44.113Q524-723.775 524-653q0 71.55-45.112 115.275Q433.775-494 364-494Zm386-159q0 70.55-44.602 114.775Q660.796-494 591.035-494 578-494 567.5-495.5T543-502q26-27.412 38.5-65.107 12.5-37.696 12.5-85.599 0-46.903-12.5-83.598Q569-773 543-804q10.75-3.75 23.5-5.875T591-812q69.775 0 114.387 44.613Q750-722.775 750-653Z"/></svg>