<svg xmlns="http://www.w3.org/2000/svg" height="48" viewBox="0 -960 960 960" width="48"><path d="M189-98q-37.175 0-64.088-26.912Q98-151.825 98-189v-582q0-37.588 26.912-64.794Q151.825-863 189-863h582q37.588 0 64.794 27.206Q863-808.588 863-771v582q0 37.175-27.206 64.088Q808.588-98 771-98H189Zm81-172h422q13.5 0 19.75-12.625T710-307L597-463q-7.308-7-19.154-7.5T560-462L446-317l-73-102q-8-9-20-8.5t-18 8.5l-83 112q-9 11.75-2.75 24.375T270-270Zm70.235-285q28.682 0 47.223-18.277Q406-591.554 406-620.235q0-28.682-18.777-47.223Q368.446-686 339.765-686q-28.682 0-46.723 18.777Q275-648.446 275-619.765q0 28.682 18.277 46.723Q311.554-555 340.235-555Z"/></svg>