<svg xmlns="http://www.w3.org/2000/svg" height="48" viewBox="0 -960 960 960" width="48"><path d="M480.297-59Q392-59 315.5-91T181-181.5Q123-240 91-316.949q-32-76.948-32-165.52Q59-571 91-647.5t90-133q58-56.5 134.449-89 76.448-32.5 165.02-32.5Q569-902 645-869.5t134 89q58 56.5 90.5 133.138T902-482q0 88.404-32.5 165.202T779-181.5Q721-123 644.774-91T480.297-59ZM479-147q33-34 55.5-79.5T573-337H388q13 61 36.094 108.158T479-147Zm-81-12q-25-36-41.875-79.326Q339.25-281.651 327-337H181q36 68.806 84.5 109.403Q314-187 398-159Zm163-1q71-20 126.5-67T779-337H635.142Q622-283 604-239.5T561-160ZM162.035-393H317q-4-27-4.5-48t-.5-41q0-25 1-43.5t5-42.5H162.035Q156-544 153-526t-3 44q0 25 3 45t9.035 44Zm214.996 0H584q3-31 3.5-50t.5-39q0-20-.5-37.5t-3.531-48.5H377q-4 31-5 48.5t-1 37.5q0 20 1 39t5.031 50ZM643-393h155q4-24 7.5-44t3.5-45q0-26-3.5-44t-7.5-42H644q1 37 2 53.675 1 16.675 1 32.325 0 21-1.5 40t-2.5 49Zm-8.858-232H779q-34-66-89.5-113T560-802q25 37 43 79t31.142 98ZM388-625h186q-9-49.721-34.5-100.361Q514-776 479-811q-29 25-50.5 68.5T388-625Zm-207 0h146.816Q339-678 355-719.5t42-81.5q-75 17-129 62t-87 114Z"/></svg>