<svg xmlns="http://www.w3.org/2000/svg" height="48" viewBox="0 -960 960 960" width="48"><path d="M185-179q-20.75 0-33.375-12.86Q139-204.719 139-224.36 139-244 151.625-257T185-270h25v-278q0-91.693 51.5-166.347Q313-789 405-810v-17q0-31.167 21.515-53.583Q448.029-903 479.765-903q31.735 0 53.485 22.417Q555-858.167 555-827v17q91 19 144 94.59 53 75.589 53 167.41v278h24q18.675 0 32.838 13.375Q823-243.249 823-224.509q0 20.141-14.162 32.825Q794.675-179 776-179H185ZM480.5-51q-37.025 0-62.263-25.594Q393-102.188 393-139h175q0 37-25.681 62.5T480.5-51Zm-.342-389q11.442 0 21.142-8.337Q511-456.675 511-470v-135.007q0-12.793-9.65-21.893-9.651-9.1-21.525-9.1-11.45 0-20.137 9.1Q451-617.8 451-605.007V-470q0 13.325 9.07 21.663Q469.141-440 480.158-440Zm-.193 110q13.21 0 24.623-10.579Q516-351.158 516-364.667q0-13.508-11.17-24.421Q493.66-400 480.018-400q-13.218 0-24.118 10.895Q445-378.21 445-364.702q0 13.509 10.877 24.105Q466.755-330 479.965-330Z"/></svg>