<svg xmlns="http://www.w3.org/2000/svg" height="48" viewBox="0 -960 960 960" width="48"><path d="M288.832-72q-29.357 0-50.094-20.906Q218-113.81 218-143.168t20.906-50.094Q259.811-214 289.168-214t50.095 20.906Q360-172.189 360-142.832t-20.906 50.094Q318.189-72 288.832-72Zm397.42 0q-29.777 0-50.015-20.906Q616-113.81 616-143.168t20.635-50.094Q657.271-214 686.248-214q30.277 0 50.515 20.906Q757-172.189 757-142.832t-20.485 50.094Q716.029-72 686.252-72ZM214-809h554.349q34.412 0 53.531 32Q841-745 824-712L708.065-502.333q-12.122 20.428-31.299 33.881Q657.589-455 632.862-455H338l-50 96h441q15.45 0 27.225 11.477Q768-336.045 768-319.719t-11.775 28.022Q744.45-280 729-280H279q-49 0-70-33t1-73l62-112-146-311H84q-16.425 0-28.212-11.541Q44-832.081 44-848.228q0-16.147 11.788-27.96Q67.575-888 84-888h64q12.892 0 25.213 6.609Q185.533-874.783 189-863l25 54Z"/></svg>