<svg xmlns="http://www.w3.org/2000/svg" height="48" viewBox="0 -960 960 960" width="48"><path d="M234.193-234q-16.425 0-28.309-11.7T194-275v-262q0-14.205 12.384-26.103Q218.768-575 234.193-575q16.425 0 28.116 11.838Q274-551.325 274-536v262q0 16.513-12.191 28.256Q249.618-234 234.193-234Zm250.702 0q-16.544 0-28.22-11.7Q445-257.4 445-275v-262q0-14.205 11.763-26.103Q468.526-575 483.772-575q16.246 0 28.237 11.838Q524-551.325 524-536v262q0 16.513-11.781 28.256Q500.439-234 484.895-234ZM105-106q-18 0-31.5-13.884t-13.5-31.8Q60-170.6 73.2-183.8T106-197h750q16.769 0 30.885 13.7Q901-169.6 901-151.684q0 18.916-13.75 32.3Q873.5-106 855-106H105Zm621.175-128q-16.424 0-28.3-11.7Q686-257.4 686-275v-262q0-14.205 12.375-26.103Q710.751-575 726.175-575q16.425 0 28.125 11.838Q766-551.325 766-536v262q0 16.513-12.2 28.256Q741.6-234 726.175-234ZM525-917l333 190q19 11 31 28.375T901-661q0 22-17.429 35.5Q866.143-612 843-612H116q-23.2 0-39.6-14.404Q60-640.808 60-662q0-20.5 12.5-37.25T105-727l330-190q22.218-9 45.109-9.5Q503-927 525-917Z"/></svg>