<svg xmlns="http://www.w3.org/2000/svg" height="48" viewBox="0 -960 960 960" width="48"><path d="M61-480q0-86.02 33.215-162.467 33.216-76.447 90.37-133.38Q241.74-832.78 318.36-866.39 394.98-900 481-900q161 0 282.5 104.5T907-534q1 10-18.927 14.353-19.928 4.353-34.387-7.191Q832-535 817-546.5 802-558 796-576q-21.158-72-72.579-128Q672-760 604-788v16.347Q604-737 581-713t-58.124 24H439v85q0 17.575-12.5 27.287Q414-567 395-567h-79v85h61q20.2 0 33.1 13.4Q423-455.2 423-435v74h-65L162-557q-5 19-7 37.667-2 18.666-2 37.718 0 114.036 67 200.826Q287-194 392-165q18.513 4.12 26.757 20.56Q427-128 422-109.5q-6 18.818-22.577 28.66Q382.846-71 364-77q-132-37-217.5-148.133Q61-336.266 61-480Zm763 367L721-215q-21 12-43.5 19t-46.065 7q-74.765 0-127.6-52.294Q451-293.588 451-369.294 451-444 503.794-496.5t127.5-52.5Q707-549 759.5-496.373 812-443.746 812-368.565 812-344 804.5-322q-7.5 22-19.5 43l103 102q14 14 13.5 32.5t-13 32Q876-98 856.5-98T824-113ZM630.859-280q36.441 0 62.791-26.419Q720-332.838 720-368.859q0-36.441-26.221-62.791Q667.557-458 631.099-458q-36.459 0-62.279 26.221Q543-405.557 543-369.099q0 36.459 25.919 62.779t61.94 26.32Z"/></svg>