<svg xmlns="http://www.w3.org/2000/svg" height="48" viewBox="0 -960 960 960" width="48"><path d="M212-384q-14-14-15-36.5t15-36.5q61-52 127-78.5T480-562q77 0 142 25.5T748-459q17 15 17 37t-15 38q-18 16-39.5 16T672-381q-50-38-97-55t-95-17q-48 0-95.5 17T289-381q-19 13-39.5 13.5T212-384ZM50-547q-15-14-16-37t16-39q86-77 196.5-123T480-792q123 0 233.5 46T912-623q15 15 14.5 37.5T911-547q-17 15-38.5 16.5T834-544q-79-66-167-103t-187-37q-99 0-187 37T128-544q-19 15-40.5 14T50-547Zm430 430q-40 0-69-29.5T382-217q0-38 29-68t69-30q40 0 69 30t29 68q0 41-29 70.5T480-117Z"/></svg>