<svg xmlns="http://www.w3.org/2000/svg" height="48" viewBox="0 -960 960 960" width="48"><path d="M486.559-298Q527-298 551-315.969t24-47.628q0-31.295-22.5-52.349Q530-437 473-461q-69-26-102-57.448-33-31.447-33-83.339 0-43.942 28-76.578Q394-711 448-719v-14q0-13.2 8.857-22.1 8.857-8.9 23-8.9h1Q495-764 504-755.1t9 22.1v13.176q32 5.824 56.5 19.741Q594-686.167 611-658q7 10.389 2 22.694Q608-623 595.593-619 585-615 573-617.5T553-630q-15-17-33.872-25.5t-41.093-8.5Q443-664 423-647.696q-20 16.303-20 41.647 0 30.951 24.5 50T508.212-513q71.055 28 101.421 63.259Q640-414.482 640-363.972 640-336 630.5-315t-26.286 36q-16.785 15-39.862 24.208Q541.275-245.583 511-242v16q0 13.2-8.857 22.1-8.857 8.9-23 8.9t-23.643-9.4q-9.5-9.4-9.5-22.6v-17q-35-8-63.614-30.218Q353.771-296.436 332-335q-5-11 .296-21.403 5.297-10.403 17.667-15.597Q360-375 371-370.5q11 4.5 18 15.5 14 28 39.935 42.5Q454.87-298 486.559-298ZM479-21q-110 0-213-62.5T100-226v89q0 16.325-11.564 27.663Q76.87-98 60.21-98q-16.235 0-27.723-11.337Q21-120.675 21-137v-185q0-19.45 12.987-32.725Q46.975-368 66-368h185q16.75 0 28.375 12.064Q291-343.871 291-328.211q0 16.236-11.625 27.724Q267.75-289 251-289h-97q50 71 141 129.5T478.6-101Q622-101 730-196.5T857-436q1-16 13.053-27 12.052-11 29.122-11 14.825 0 27.325 9.375T937-440q-8.741 90.267-47.87 167.134Q850-196 787.871-140.317q-62.129 55.683-141.5 87.5Q567-21 479-21Zm1-838q-143 0-251 95.5T104-524q-2.497 15.429-14.48 26.714Q77.537-486 60.56-486q-15.487 0-27.523-11.833Q21-509.667 24-526q6-87 46-162t100-130q60-55 140.653-88 80.653-33 169.847-33Q591-939 695-876.5T860-734v-89q0-18.45 10.982-29.225 10.983-10.775 29-10.775Q917-863 928.5-852.225T940-823v185q0 19.025-13.275 32.013Q913.45-593 894-593H709q-16.325 0-27.662-11.772-11.338-11.772-11.338-27Q670-648 681.338-660q11.337-12 27.662-12h98q-54-74-146-130.5T480-859Z"/></svg>